<?xml version="1.0" encoding="UTF-8" standalone="no"?>
<svg
   xmlns:dc="http://purl.org/dc/elements/1.1/"
   xmlns:cc="http://creativecommons.org/ns#"
   xmlns:rdf="http://www.w3.org/1999/02/22-rdf-syntax-ns#"
   xmlns:svg="http://www.w3.org/2000/svg"
   xmlns="http://www.w3.org/2000/svg"
   xmlns:sodipodi="http://sodipodi.sourceforge.net/DTD/sodipodi-0.dtd"
   xmlns:inkscape="http://www.inkscape.org/namespaces/inkscape"
   id="Layer_2"
   data-name="Layer 2"
   viewBox="0 0 800 800"
   version="1.1"
   sodipodi:docname="openimis.svg"
   inkscape:version="0.92.3 (2405546, 2018-03-11)">
  <metadata
     id="metadata19">
    <rdf:RDF>
      <cc:Work
         rdf:about="">
        <dc:format>image/svg+xml</dc:format>
        <dc:type
           rdf:resource="http://purl.org/dc/dcmitype/StillImage" />
        <dc:title></dc:title>
      </cc:Work>
    </rdf:RDF>
  </metadata>
  <sodipodi:namedview
     pagecolor="#ffffff"
     bordercolor="#666666"
     borderopacity="1"
     objecttolerance="10"
     gridtolerance="10"
     guidetolerance="10"
     inkscape:pageopacity="0"
     inkscape:pageshadow="2"
     inkscape:window-width="1680"
     inkscape:window-height="997"
     id="namedview17"
     showgrid="false"
     inkscape:zoom="0.295"
     inkscape:cx="400"
     inkscape:cy="400"
     inkscape:window-x="-8"
     inkscape:window-y="-8"
     inkscape:window-maximized="1"
     inkscape:current-layer="Layer_2" />
  <defs
     id="defs4">
    <style
       id="style2">.cls-1{isolation:isolate;font-size:160.77px;font-family:Nunito-ExtraBold, Nunito;font-weight:800;}.cls-2{fill:#b2d0d5;}.cls-3{fill:#81b1ba;}.cls-4{fill:#086576;}.cls-5{fill:#358290;}</style>
  </defs>
  <path
     class="cls-2"
     d="M508.22,494.94,773.08,601.81a368.77,368.77,0,0,0,23.13-127.88A360.78,360.78,0,0,0,581.89,144.8L471.77,408.11a76.87,76.87,0,0,1,32.43,34.56,82.59,82.59,0,0,1,4,52.13"
     id="path8" />
  <path
     class="cls-3"
     d="M633.63,678.43a281.71,281.71,0,0,0,37-43.56,301.23,301.23,0,0,0,27.1-49.17L502.94,507.43a66.3,66.3,0,0,1-7.16,11.42,79.48,79.48,0,0,1-9.68,10.65Z"
     id="path10" />
  <path
     class="cls-4"
     d="M385.37,529.26a78.62,78.62,0,0,1-15.73-20.77A68.91,68.91,0,0,1,362,482.7L76.37,483A358.17,358.17,0,0,0,187,734Z"
     id="path12" />
  <path
     class="cls-5"
     d="M361.17,467.79H4.79C8.39,231.84,201,42.6,436.92,43.1A437.28,437.28,0,0,1,596.65,73.94L459.38,402.64a113,113,0,0,0-22.07-3.73c-38,1.07-71.83,26.86-76,68.88"
     id="path14" />
</svg>
